<?xml version="1.0" encoding="UTF-8" standalone="no"?>
<!-- Created with Inkscape (http://www.inkscape.org/) -->

<svg
   xmlns:dc="http://purl.org/dc/elements/1.1/"
   xmlns:cc="http://creativecommons.org/ns#"
   xmlns:rdf="http://www.w3.org/1999/02/22-rdf-syntax-ns#"
   xmlns:svg="http://www.w3.org/2000/svg"
   xmlns="http://www.w3.org/2000/svg"
   xmlns:sodipodi="http://sodipodi.sourceforge.net/DTD/sodipodi-0.dtd"
   xmlns:inkscape="http://www.inkscape.org/namespaces/inkscape"
   width="200.00362"
   height="151.97134"
   viewBox="0 0 200.00362 151.97134"
   id="svg2"
   version="1.1"
   inkscape:version="0.91 r13725"
   sodipodi:docname="3bear-logo.svg"
   inkscape:export-filename="/home/maxim/develop/perl/sitegen/public/media/images/site/3bear-logo.png"
   inkscape:export-xdpi="90"
   inkscape:export-ydpi="90">
  <defs
     id="defs4" />
  <sodipodi:namedview
     id="base"
     pagecolor="#ffffff"
     bordercolor="#666666"
     borderopacity="1.0"
     inkscape:pageopacity="0.0"
     inkscape:pageshadow="2"
     inkscape:zoom="3.0267458"
     inkscape:cx="-6.2117611"
     inkscape:cy="28.798496"
     inkscape:document-units="px"
     inkscape:current-layer="layer1"
     showgrid="false"
     inkscape:window-width="1680"
     inkscape:window-height="1026"
     inkscape:window-x="0"
     inkscape:window-y="24"
     inkscape:window-maximized="1"
     showguides="false"
     inkscape:guide-bbox="true"
     units="px"
     fit-margin-top="0"
     fit-margin-left="0"
     fit-margin-right="0"
     fit-margin-bottom="0">
    <sodipodi:guide
       position="-49.063121,42.838836"
       orientation="1,0"
       id="guide4152" />
    <sodipodi:guide
       position="249.75524,36.446999"
       orientation="1,0"
       id="guide4154" />
    <sodipodi:guide
       position="83.034833,155.76128"
       orientation="0,1"
       id="guide4156" />
    <sodipodi:guide
       position="110.73279,-0.83871388"
       orientation="0,1"
       id="guide4158" />
    <sodipodi:guide
       position="-0.059040035,88.646996"
       orientation="1,0"
       id="guide4190" />
    <sodipodi:guide
       position="199.68586,31.653122"
       orientation="1,0"
       id="guide4192" />
  </sodipodi:namedview>
  <metadata
     id="metadata7">
    <rdf:RDF>
      <cc:Work
         rdf:about="">
        <dc:format>image/svg+xml</dc:format>
        <dc:type
           rdf:resource="http://purl.org/dc/dcmitype/StillImage" />
        <dc:title />
      </cc:Work>
    </rdf:RDF>
  </metadata>
  <g
     inkscape:label="Layer 1"
     inkscape:groupmode="layer"
     id="layer1"
     transform="translate(-67.173324,-882.50724)"
     style="display:inline">
    <g
       style="font-style:normal;font-variant:normal;font-weight:normal;font-stretch:normal;font-size:52.24388123px;line-height:125%;font-family:Tsarevich;-inkscape-font-specification:'Tsarevich, Normal';text-align:start;letter-spacing:0px;word-spacing:0px;writing-mode:lr-tb;text-anchor:start;display:inline;fill:#bb0f40;fill-opacity:1;stroke:none;stroke-width:1px;stroke-linecap:butt;stroke-linejoin:miter;stroke-opacity:1"
       id="text3336-0-4-8-0">
      <path
         d="m 67.704834,911.51795 22.88282,0 0,9.19493 -4.545218,0 0,-7.47088 -4.649705,0 0,34.53321 -4.545218,0 0,-34.53321 -4.597461,0 0,7.47088 -4.545218,0 0,-9.19493 0,0 z"
         style="font-style:normal;font-variant:normal;font-weight:normal;font-stretch:normal;font-size:52.24388123px;line-height:125%;font-family:Tsarevich;-inkscape-font-specification:'Tsarevich, Normal';text-align:start;writing-mode:lr-tb;text-anchor:start;fill:#bb0f40;fill-opacity:1"
         id="path4148"
         inkscape:connector-curvature="0" />
      <path
         d="m 118.29242,911.51795 0,36.25726 -4.54522,0 0,-13.79239 q -0.88814,0.88815 -2.08975,1.46283 -1.20161,0.52244 -2.55995,0.52244 l 0,11.80712 -4.54522,0 0,-22.72609 4.54522,0 0,9.19492 q 0.94039,0 1.72405,-0.31346 0.8359,-0.36571 1.46282,-0.94039 0.62693,-0.62693 0.99264,-1.41059 0.41795,-0.78365 0.47019,-1.72404 l 0,-18.33761 4.54522,0 z m -9.19492,9.19493 -4.54522,0 q -0.94039,0 -1.77629,0.3657 -0.78366,0.31347 -1.41059,0.94039 -0.62692,0.57469 -1.04487,1.35834 -0.365711,0.78366 -0.417955,1.72405 l 0,22.67385 -4.545218,0 0,-36.25726 13.740143,0 0,9.19493 z m -4.54522,-7.47088 -4.649705,0 0,7.7321 q 0.888145,-0.88815 2.089755,-1.41059 1.20161,-0.57468 2.55995,-0.57468 l 0,-5.74683 z"
         style="font-style:normal;font-variant:normal;font-weight:normal;font-stretch:normal;font-size:52.24388123px;line-height:125%;font-family:Tsarevich;-inkscape-font-specification:'Tsarevich, Normal';text-align:start;writing-mode:lr-tb;text-anchor:start;fill:#bb0f40;fill-opacity:1"
         id="path4150"
         inkscape:connector-curvature="0" />
      <path
         d="m 151.65341,911.51795 4.54521,0 0,36.25726 -4.54521,0 0,-29.93575 q -0.94039,0 -1.7763,0.36571 -0.78365,0.31346 -1.41058,0.94039 -0.62693,0.57468 -1.04488,1.35834 -0.36571,0.78366 -0.41795,1.72405 l 0,25.54726 -4.54522,0 0,-25.54726 q 0,-0.94039 -0.41795,-1.72405 -0.41795,-0.8359 -1.04488,-1.41058 -0.62692,-0.62693 -1.46282,-0.94039 -0.83591,-0.31347 -1.67181,-0.31347 l 0,29.93575 -4.54522,0 0,-36.25726 4.54522,0 0,4.59747 q 1.56732,0 3.4481,0.67917 1.93302,0.67917 3.44809,1.88078 1.46283,-1.20161 3.39586,-1.88078 1.93302,-0.67917 3.50034,-0.67917 l 0,-4.59747 z"
         style="font-style:normal;font-variant:normal;font-weight:normal;font-stretch:normal;font-size:52.24388123px;line-height:125%;font-family:Tsarevich;-inkscape-font-specification:'Tsarevich, Normal';text-align:start;writing-mode:lr-tb;text-anchor:start;fill:#bb0f40;fill-opacity:1"
         id="path4152"
         inkscape:connector-curvature="0" />
      <path
         d="m 174.70846,911.51795 0,9.19493 -4.54521,0 0,-7.47088 -4.64971,0 0,7.15741 q 0,2.142 1.20161,3.39586 1.25385,1.25385 3.4481,1.25385 l 0,1.72405 q -2.19425,0 -3.4481,1.25385 -1.20161,1.25385 -1.20161,3.34361 l 0,14.68053 4.64971,0 0,-11.80712 4.54521,0 0,13.53117 -13.74014,0 0,-16.35234 q 0,-2.19424 1.3061,-3.50034 1.35834,-1.30609 3.13463,-2.03751 -1.77629,-0.67917 -3.13463,-1.98527 -1.3061,-1.30609 -1.3061,-3.50034 l 0,-8.88146 13.74014,0 z"
         style="font-style:normal;font-variant:normal;font-weight:normal;font-stretch:normal;font-size:52.24388123px;line-height:125%;font-family:Tsarevich;-inkscape-font-specification:'Tsarevich, Normal';text-align:start;writing-mode:lr-tb;text-anchor:start;fill:#bb0f40;fill-opacity:1"
         id="path4154"
         inkscape:connector-curvature="0" />
      <path
         d="m 193.1775,946.05116 2.29873,0 0,1.72405 q 0,1.25385 -0.83591,2.08975 -0.8359,0.88815 -2.35097,0.88815 l -3.65707,0 0,-0.57468 q 2.29873,0 2.29873,-2.40322 l -9.24717,0 q 0,2.40322 2.29873,2.40322 l 0,0.57468 -3.65707,0 q -1.51507,0 -2.35097,-0.88815 -0.83591,-0.8359 -0.83591,-2.08975 l 0,-1.72405 2.29874,0 0,-21.00204 4.54521,0 q 1.88078,0 3.18688,-1.25385 1.35834,-1.3061 1.46283,-3.13464 l 0,-7.41863 -4.64971,0 0,7.47088 -4.54521,0 0,-9.19493 13.74014,0 0,34.53321 z m -4.54522,0 0,-21.26326 q -0.88815,0.88815 -2.08976,1.46283 -1.20161,0.52244 -2.55995,0.52244 l 0,19.27799 4.64971,0 z"
         style="font-style:normal;font-variant:normal;font-weight:normal;font-stretch:normal;font-size:52.24388123px;line-height:125%;font-family:Tsarevich;-inkscape-font-specification:'Tsarevich, Normal';text-align:start;writing-mode:lr-tb;text-anchor:start;fill:#bb0f40;fill-opacity:1"
         id="path4156"
         inkscape:connector-curvature="0" />
      <path
         d="m 211.44244,911.51795 0,9.19493 -7.00068,0 q -0.88814,0 -1.56731,0.62692 -0.62693,0.62693 -0.62693,1.51508 0,0.88814 0.62693,1.56731 0.67917,0.62693 1.56731,0.62693 l 7.00068,0 0,22.72609 -13.74014,0 0,-36.25726 13.74014,0 z m -7.00068,15.25522 q -1.20161,0 -2.19424,-0.67917 l 0,19.95716 4.6497,0 0,-19.27799 -2.45546,0 z m 2.45546,-13.53117 -4.6497,0 0,6.426 q 0.99263,-0.67917 2.19424,-0.67917 l 2.45546,0 0,-5.74683 z"
         style="font-style:normal;font-variant:normal;font-weight:normal;font-stretch:normal;font-size:52.24388123px;line-height:125%;font-family:Tsarevich;-inkscape-font-specification:'Tsarevich, Normal';text-align:start;writing-mode:lr-tb;text-anchor:start;fill:#bb0f40;fill-opacity:1"
         id="path4158"
         inkscape:connector-curvature="0" />
      <path
         d="m 229.91147,911.51795 0,9.19493 -4.54522,0 0,-7.47088 -4.64971,0 0,7.15741 q 0,2.142 1.20161,3.39586 1.25386,1.25385 3.4481,1.25385 l 0,1.72405 q -2.19424,0 -3.4481,1.25385 -1.20161,1.25385 -1.20161,3.34361 l 0,14.68053 4.64971,0 0,-11.80712 4.54522,0 0,13.53117 -13.74014,0 0,-16.35234 q 0,-2.19424 1.30609,-3.50034 1.35834,-1.30609 3.13464,-2.03751 -1.7763,-0.67917 -3.13464,-1.98527 -1.30609,-1.30609 -1.30609,-3.50034 l 0,-8.88146 13.74014,0 z"
         style="font-style:normal;font-variant:normal;font-weight:normal;font-stretch:normal;font-size:52.24388123px;line-height:125%;font-family:Tsarevich;-inkscape-font-specification:'Tsarevich, Normal';text-align:start;writing-mode:lr-tb;text-anchor:start;fill:#bb0f40;fill-opacity:1"
         id="path4160"
         inkscape:connector-curvature="0" />
      <path
         d="m 248.38051,946.05116 2.29873,0 0,1.72405 q 0,1.25385 -0.8359,2.08975 -0.83591,0.88815 -2.35098,0.88815 l -3.65707,0 0,-0.57468 q 2.29873,0 2.29873,-2.40322 l -9.24717,0 q 0,2.40322 2.29873,2.40322 l 0,0.57468 -3.65707,0 q -1.51507,0 -2.35097,-0.88815 -0.83591,-0.8359 -0.83591,-2.08975 l 0,-1.72405 2.29874,0 0,-21.00204 4.54521,0 q 1.88078,0 3.18688,-1.25385 1.35834,-1.3061 1.46283,-3.13464 l 0,-7.41863 -4.64971,0 0,7.47088 -4.54521,0 0,-9.19493 13.74014,0 0,34.53321 z m -4.54522,0 0,-21.26326 q -0.88815,0.88815 -2.08976,1.46283 -1.20161,0.52244 -2.55995,0.52244 l 0,19.27799 4.64971,0 z"
         style="font-style:normal;font-variant:normal;font-weight:normal;font-stretch:normal;font-size:52.24388123px;line-height:125%;font-family:Tsarevich;-inkscape-font-specification:'Tsarevich, Normal';text-align:start;writing-mode:lr-tb;text-anchor:start;fill:#bb0f40;fill-opacity:1"
         id="path4162"
         inkscape:connector-curvature="0" />
      <path
         d="m 266.64544,911.51795 0,36.25726 -4.54521,0 0,-21.68121 q -1.04488,0.67917 -2.19425,0.67917 l -2.45546,0 0,21.00204 -4.54522,0 0,-22.72609 7.00068,0 q 0.88815,0 1.51508,-0.62693 0.67917,-0.67917 0.67917,-1.56731 0,-0.88815 -0.67917,-1.51508 -0.62693,-0.62692 -1.51508,-0.62692 l -7.00068,0 0,-9.19493 13.74014,0 z m -4.54521,1.72405 -4.64971,0 0,5.74683 2.45546,0 q 1.14937,0 2.19425,0.67917 l 0,-6.426 z"
         style="font-style:normal;font-variant:normal;font-weight:normal;font-stretch:normal;font-size:52.24388123px;line-height:125%;font-family:Tsarevich;-inkscape-font-specification:'Tsarevich, Normal';text-align:start;writing-mode:lr-tb;text-anchor:start;fill:#bb0f40;fill-opacity:1"
         id="path4164"
         inkscape:connector-curvature="0" />
    </g>
    <g
       style="font-style:normal;font-variant:normal;font-weight:normal;font-stretch:normal;font-size:17.41462898px;line-height:125%;font-family:'Ubuntu Condensed';-inkscape-font-specification:'Ubuntu Condensed, Normal';text-align:start;letter-spacing:0px;word-spacing:0px;writing-mode:lr-tb;text-anchor:start;display:inline;fill:#666666;fill-opacity:1;stroke:none;stroke-width:1px;stroke-linecap:butt;stroke-linejoin:miter;stroke-opacity:1"
       id="text3344-9-4-76-5">
      <path
         d="m 67.173324,962.57772 6.060291,0 0,1.28868 -2.281316,0 0,7.854 -1.497658,0 0,-7.854 -2.281317,0 0,-1.28868 z"
         style="font-style:normal;font-variant:normal;font-weight:normal;font-stretch:normal;font-size:17.41462898px;line-height:125%;font-family:'Ubuntu Condensed';-inkscape-font-specification:'Ubuntu Condensed, Normal';text-align:start;letter-spacing:1.22298837px;writing-mode:lr-tb;text-anchor:start;fill:#666666;fill-opacity:1"
         id="path4167"
         inkscape:connector-curvature="0" />
      <path
         d="m 77.555591,970.34464 q 0.505024,0.27864 1.079707,0.27864 0.435366,0 0.766244,-0.17415 0.330878,-0.17415 0.557268,-0.57468 0.243805,-0.40054 0.365707,-1.0623 0.121903,-0.66175 0.121903,-1.63697 0,-1.88078 -0.48761,-2.68185 -0.470195,-0.81849 -1.515073,-0.81849 -0.191561,0 -0.417951,0.0348 -0.22639,0.0174 -0.470195,0.0871 l 0,6.5479 z m 0,4.59746 -1.497658,0 0,-12.12058 q 0.48761,-0.20897 1.097122,-0.33088 0.626926,-0.13931 1.271268,-0.13931 0.957804,0 1.636975,0.33088 0.696585,0.33087 1.114536,0.9578 0.435366,0.60951 0.626927,1.51507 0.208975,0.88815 0.208975,2.03751 0,2.31615 -0.748829,3.53517 -0.731414,1.21903 -2.403219,1.21903 -0.400536,0 -0.713999,-0.0871 -0.313464,-0.0696 -0.592098,-0.20897 l 0,3.29136 z"
         style="font-style:normal;font-variant:normal;font-weight:normal;font-stretch:normal;font-size:17.41462898px;line-height:125%;font-family:'Ubuntu Condensed';-inkscape-font-specification:'Ubuntu Condensed, Normal';text-align:start;letter-spacing:1.22298837px;writing-mode:lr-tb;text-anchor:start;fill:#666666;fill-opacity:1"
         id="path4169"
         inkscape:connector-curvature="0" />
      <path
         d="m 85.566748,962.76928 q 0.45278,-0.19156 0.957805,-0.29605 0.505024,-0.1219 1.097121,-0.1219 1.219024,0 1.985268,0.76624 0.766244,0.74883 0.766244,2.35098 l 0,6.06029 q -0.626927,0.17414 -1.288683,0.27863 -0.644341,0.10449 -1.271268,0.10449 -0.626927,0 -1.184195,-0.15673 -0.539853,-0.15673 -0.957804,-0.50503 -0.400537,-0.34829 -0.644342,-0.87073 -0.243804,-0.53985 -0.243804,-1.3061 0,-0.714 0.208975,-1.23643 0.22639,-0.53986 0.609512,-0.88815 0.383122,-0.36571 0.905561,-0.53985 0.522439,-0.19156 1.131951,-0.19156 0.574683,0 1.271268,0.13931 l 0,-0.8359 q 0,-1.01005 -0.400537,-1.41058 -0.383122,-0.40054 -1.114536,-0.40054 -0.400536,0 -0.766244,0.0871 -0.348292,0.0697 -0.748829,0.24381 l -0.313463,-1.27127 z m 0.714,6.28668 q 0,0.80107 0.417951,1.18419 0.417951,0.38313 1.184195,0.38313 0.470195,0 1.027463,-0.12191 l 0,-2.90824 q -0.522439,-0.13932 -1.027463,-0.13932 -0.330878,0 -0.626927,0.0871 -0.296049,0.0697 -0.522439,0.26122 -0.208975,0.17414 -0.330878,0.48761 -0.121902,0.29604 -0.121902,0.76624 z"
         style="font-style:normal;font-variant:normal;font-weight:normal;font-stretch:normal;font-size:17.41462898px;line-height:125%;font-family:'Ubuntu Condensed';-inkscape-font-specification:'Ubuntu Condensed, Normal';text-align:start;letter-spacing:1.22298837px;writing-mode:lr-tb;text-anchor:start;fill:#666666;fill-opacity:1"
         id="path4171"
         inkscape:connector-curvature="0" />
      <path
         d="m 93.017099,970.50137 0.922975,0 q 0.417951,-0.73141 0.661756,-1.58473 0.243805,-0.85331 0.365707,-1.82853 0.121903,-0.97522 0.156732,-2.08976 0.03483,-1.13195 0.05224,-2.42063 l 4.736779,0 0,7.92365 1.114542,0 0,3.74415 -1.462834,0 0,-2.52512 -5.085072,0 0,2.52512 -1.462829,0 0,-3.74415 z m 3.552584,-6.63497 q -0.01741,0.94039 -0.05224,1.82854 -0.03483,0.88814 -0.156731,1.70663 -0.104488,0.81849 -0.313464,1.60215 -0.19156,0.76624 -0.539853,1.49765 l 2.943072,0 0,-6.63497 -1.88078,0 z"
         style="font-style:normal;font-variant:normal;font-weight:normal;font-stretch:normal;font-size:17.41462898px;line-height:125%;font-family:'Ubuntu Condensed';-inkscape-font-specification:'Ubuntu Condensed, Normal';text-align:start;letter-spacing:1.22298837px;writing-mode:lr-tb;text-anchor:start;fill:#666666;fill-opacity:1"
         id="path4173"
         inkscape:connector-curvature="0" />
      <path
         d="m 109.59054,962.52547 0,9.19493 -1.41059,0 0,-6.61756 q -0.36571,0.67917 -0.81849,1.5499 -0.45278,0.87073 -0.90556,1.77629 -0.43536,0.90556 -0.8359,1.7763 -0.38312,0.85331 -0.64434,1.51507 l -1.18419,0 0,-9.19493 1.39317,0 0,6.02547 q 0.31346,-0.714 0.73141,-1.53249 0.41795,-0.8359 0.85332,-1.63698 0.43536,-0.81848 0.85331,-1.5499 0.43537,-0.74883 0.80108,-1.3061 l 1.16678,0 z"
         style="font-style:normal;font-variant:normal;font-weight:normal;font-stretch:normal;font-size:17.41462898px;line-height:125%;font-family:'Ubuntu Condensed';-inkscape-font-specification:'Ubuntu Condensed, Normal';text-align:start;letter-spacing:1.22298837px;writing-mode:lr-tb;text-anchor:start;fill:#666666;fill-opacity:1"
         id="path4175"
         inkscape:connector-curvature="0" />
      <path
         d="m 113.51769,962.57772 1.49766,0 0,7.854 2.62961,0 0,-7.854 1.49766,0 0,7.92365 1.11453,0 0,3.74415 -1.46283,0 0,-2.52512 -5.27663,0 0,-9.14268 z"
         style="font-style:normal;font-variant:normal;font-weight:normal;font-stretch:normal;font-size:17.41462898px;line-height:125%;font-family:'Ubuntu Condensed';-inkscape-font-specification:'Ubuntu Condensed, Normal';text-align:start;letter-spacing:1.22298837px;writing-mode:lr-tb;text-anchor:start;fill:#666666;fill-opacity:1"
         id="path4177"
         inkscape:connector-curvature="0" />
      <path
         d="m 128.8049,962.52547 0,9.19493 -1.41059,0 0,-6.61756 q -0.36571,0.67917 -0.81849,1.5499 -0.45278,0.87073 -0.90556,1.77629 -0.43536,0.90556 -0.8359,1.7763 -0.38312,0.85331 -0.64434,1.51507 l -1.1842,0 0,-9.19493 1.39318,0 0,6.02547 q 0.31346,-0.714 0.73141,-1.53249 0.41795,-0.8359 0.85332,-1.63698 0.43536,-0.81848 0.85331,-1.5499 0.43537,-0.74883 0.80108,-1.3061 l 1.16678,0 z"
         style="font-style:normal;font-variant:normal;font-weight:normal;font-stretch:normal;font-size:17.41462898px;line-height:125%;font-family:'Ubuntu Condensed';-inkscape-font-specification:'Ubuntu Condensed, Normal';text-align:start;letter-spacing:1.22298837px;writing-mode:lr-tb;text-anchor:start;fill:#666666;fill-opacity:1"
         id="path4179"
         inkscape:connector-curvature="0" />
      <path
         d="m 138.53112,962.52547 0,9.19493 -1.41058,0 0,-6.61756 q -0.36571,0.67917 -0.81849,1.5499 -0.45278,0.87073 -0.90556,1.77629 -0.43537,0.90556 -0.8359,1.7763 -0.38312,0.85331 -0.64434,1.51507 l -1.1842,0 0,-9.19493 1.39317,0 0,6.02547 q 0.31347,-0.714 0.73142,-1.53249 0.41795,-0.8359 0.85331,-1.63698 0.43537,-0.81848 0.85332,-1.5499 0.43537,-0.74883 0.80107,-1.3061 l 1.16678,0 z"
         style="font-style:normal;font-variant:normal;font-weight:normal;font-stretch:normal;font-size:17.41462898px;line-height:125%;font-family:'Ubuntu Condensed';-inkscape-font-specification:'Ubuntu Condensed, Normal';text-align:start;letter-spacing:1.22298837px;writing-mode:lr-tb;text-anchor:start;fill:#666666;fill-opacity:1"
         id="path4181"
         inkscape:connector-curvature="0" />
      <path
         d="m 151.24466,963.8664 -2.66444,0 0,7.854 -1.49766,0 0,-9.14268 4.1621,0 0,1.28868 z"
         style="font-style:normal;font-variant:normal;font-weight:normal;font-stretch:normal;font-size:17.41462898px;line-height:125%;font-family:'Ubuntu Condensed';-inkscape-font-specification:'Ubuntu Condensed, Normal';text-align:start;letter-spacing:1.22298837px;writing-mode:lr-tb;text-anchor:start;fill:#666666;fill-opacity:1"
         id="path4183"
         inkscape:connector-curvature="0" />
      <path
         d="m 159.7524,967.15777 q 0,1.0797 -0.19156,1.96785 -0.19156,0.87073 -0.5921,1.49766 -0.38312,0.62692 -0.99263,0.97522 -0.5921,0.34829 -1.41059,0.34829 -0.81848,0 -1.428,-0.34829 -0.60951,-0.3483 -1.01004,-0.97522 -0.38313,-0.62693 -0.57469,-1.49766 -0.19156,-0.88815 -0.19156,-1.96785 0,-1.0623 0.19156,-1.95044 0.19156,-0.88815 0.57469,-1.51508 0.40053,-0.64434 1.01004,-0.99263 0.60952,-0.34829 1.428,-0.34829 0.81849,0 1.41059,0.34829 0.60951,0.34829 0.99263,0.99263 0.40054,0.62693 0.5921,1.51508 0.19156,0.88814 0.19156,1.95044 z m -1.56732,0 q 0,-0.76625 -0.0871,-1.39318 -0.0871,-0.64434 -0.27863,-1.09712 -0.19156,-0.47019 -0.50503,-0.714 -0.31346,-0.26122 -0.74883,-0.26122 -0.45278,0 -0.76624,0.26122 -0.29605,0.24381 -0.50502,0.714 -0.19157,0.45278 -0.27864,1.09712 -0.0871,0.62693 -0.0871,1.39318 0,0.76624 0.0871,1.41058 0.0871,0.62693 0.27864,1.07971 0.20897,0.45278 0.50502,0.714 0.31346,0.2438 0.76624,0.2438 0.43537,0 0.74883,-0.2438 0.31347,-0.26122 0.50503,-0.714 0.19156,-0.45278 0.27863,-1.07971 0.0871,-0.64434 0.0871,-1.41058 z"
         style="font-style:normal;font-variant:normal;font-weight:normal;font-stretch:normal;font-size:17.41462898px;line-height:125%;font-family:'Ubuntu Condensed';-inkscape-font-specification:'Ubuntu Condensed, Normal';text-align:start;letter-spacing:1.22298837px;writing-mode:lr-tb;text-anchor:start;fill:#666666;fill-opacity:1"
         id="path4185"
         inkscape:connector-curvature="0" />
      <path
         d="m 165.95407,971.94679 q -0.94039,0 -1.56732,-0.36571 -0.62692,-0.36571 -1.02746,-0.99263 -0.38312,-0.64434 -0.55727,-1.51508 -0.15673,-0.87073 -0.15673,-1.89819 0,-2.2639 0.81849,-3.53517 0.8359,-1.28868 2.5077,-1.28868 0.50503,0 0.90556,0.1219 0.40054,0.1219 0.74883,0.31346 l -0.38312,1.23644 q -0.53985,-0.34829 -1.20161,-0.34829 -0.94039,0 -1.39317,0.85332 -0.43536,0.85331 -0.43536,2.64702 0,0.74883 0.0871,1.39317 0.0871,0.62693 0.29605,1.07971 0.22639,0.45278 0.57468,0.714 0.36571,0.26122 0.92298,0.26122 0.38312,0 0.67917,-0.0871 0.31346,-0.10448 0.59209,-0.26122 l 0.33088,1.16678 q -0.27863,0.19156 -0.74883,0.3483 -0.45278,0.15673 -0.99263,0.15673 z"
         style="font-style:normal;font-variant:normal;font-weight:normal;font-stretch:normal;font-size:17.41462898px;line-height:125%;font-family:'Ubuntu Condensed';-inkscape-font-specification:'Ubuntu Condensed, Normal';text-align:start;letter-spacing:1.22298837px;writing-mode:lr-tb;text-anchor:start;fill:#666666;fill-opacity:1"
         id="path4187"
         inkscape:connector-curvature="0" />
      <path
         d="m 169.77265,962.57772 6.06029,0 0,1.28868 -2.28131,0 0,7.854 -1.49766,0 0,-7.854 -2.28132,0 0,-1.28868 z"
         style="font-style:normal;font-variant:normal;font-weight:normal;font-stretch:normal;font-size:17.41462898px;line-height:125%;font-family:'Ubuntu Condensed';-inkscape-font-specification:'Ubuntu Condensed, Normal';text-align:start;letter-spacing:1.22298837px;writing-mode:lr-tb;text-anchor:start;fill:#666666;fill-opacity:1"
         id="path4189"
         inkscape:connector-curvature="0" />
      <path
         d="m 179.43004,967.59313 q 0.0174,0.66176 0.1219,1.21902 0.10449,0.53986 0.33088,0.95781 0.2438,0.40054 0.62693,0.62693 0.40053,0.22639 1.01004,0.22639 0.50503,0 0.92298,-0.13932 0.43537,-0.15673 0.62693,-0.26122 l 0.27863,1.20161 q -0.22639,0.15673 -0.76624,0.33088 -0.52244,0.19156 -1.25386,0.19156 -0.9578,0 -1.61956,-0.34829 -0.64434,-0.3483 -1.06229,-0.97522 -0.40054,-0.62693 -0.57468,-1.49766 -0.17415,-0.87073 -0.17415,-1.91561 0,-2.52512 0.8359,-3.6919 0.83591,-1.16678 2.21166,-1.16678 1.5499,0 2.19425,1.16678 0.64434,1.16678 0.64434,3.27395 0,0.19156 0,0.40053 0,0.19157 -0.0174,0.40054 l -4.33624,0 z m 1.51507,-3.97053 q -0.74883,0 -1.09712,0.74882 -0.33088,0.74883 -0.40054,2.00269 l 2.76893,0 q 0,-1.27127 -0.26122,-2.00269 -0.26122,-0.74882 -1.01005,-0.74882 z"
         style="font-style:normal;font-variant:normal;font-weight:normal;font-stretch:normal;font-size:17.41462898px;line-height:125%;font-family:'Ubuntu Condensed';-inkscape-font-specification:'Ubuntu Condensed, Normal';text-align:start;letter-spacing:1.22298837px;writing-mode:lr-tb;text-anchor:start;fill:#666666;fill-opacity:1"
         id="path4191"
         inkscape:connector-curvature="0" />
      <path
         d="m 192.83537,971.7204 -1.49766,0 0,-7.854 -2.62961,0 0,7.854 -1.49765,0 0,-9.14268 5.62492,0 0,9.14268 z"
         style="font-style:normal;font-variant:normal;font-weight:normal;font-stretch:normal;font-size:17.41462898px;line-height:125%;font-family:'Ubuntu Condensed';-inkscape-font-specification:'Ubuntu Condensed, Normal';text-align:start;letter-spacing:1.22298837px;writing-mode:lr-tb;text-anchor:start;fill:#666666;fill-opacity:1"
         id="path4193"
         inkscape:connector-curvature="0" />
      <path
         d="m 198.24685,970.34464 q 0.50502,0.27864 1.07971,0.27864 0.43536,0 0.76624,-0.17415 0.33088,-0.17415 0.55727,-0.57468 0.2438,-0.40054 0.3657,-1.0623 0.12191,-0.66175 0.12191,-1.63697 0,-1.88078 -0.48761,-2.68185 -0.4702,-0.81849 -1.51508,-0.81849 -0.19156,0 -0.41795,0.0348 -0.22639,0.0174 -0.47019,0.0871 l 0,6.5479 z m 0,4.59746 -1.49766,0 0,-12.12058 q 0.48761,-0.20897 1.09712,-0.33088 0.62693,-0.13931 1.27127,-0.13931 0.9578,0 1.63698,0.33088 0.69658,0.33087 1.11453,0.9578 0.43537,0.60951 0.62693,1.51507 0.20897,0.88815 0.20897,2.03751 0,2.31615 -0.74883,3.53517 -0.73141,1.21903 -2.40321,1.21903 -0.40054,0 -0.714,-0.0871 -0.31347,-0.0696 -0.5921,-0.20897 l 0,3.29136 z"
         style="font-style:normal;font-variant:normal;font-weight:normal;font-stretch:normal;font-size:17.41462898px;line-height:125%;font-family:'Ubuntu Condensed';-inkscape-font-specification:'Ubuntu Condensed, Normal';text-align:start;letter-spacing:1.22298837px;writing-mode:lr-tb;text-anchor:start;fill:#666666;fill-opacity:1"
         id="path4195"
         inkscape:connector-curvature="0" />
      <path
         d="m 211.91776,962.52547 0,9.19493 -1.41059,0 0,-6.61756 q -0.3657,0.67917 -0.81848,1.5499 -0.45278,0.87073 -0.90557,1.77629 -0.43536,0.90556 -0.8359,1.7763 -0.38312,0.85331 -0.64434,1.51507 l -1.18419,0 0,-9.19493 1.39317,0 0,6.02547 q 0.31346,-0.714 0.73141,-1.53249 0.41795,-0.8359 0.85332,-1.63698 0.43536,-0.81848 0.85331,-1.5499 0.43537,-0.74883 0.80108,-1.3061 l 1.16678,0 z"
         style="font-style:normal;font-variant:normal;font-weight:normal;font-stretch:normal;font-size:17.41462898px;line-height:125%;font-family:'Ubuntu Condensed';-inkscape-font-specification:'Ubuntu Condensed, Normal';text-align:start;letter-spacing:1.22298837px;writing-mode:lr-tb;text-anchor:start;fill:#666666;fill-opacity:1"
         id="path4197"
         inkscape:connector-curvature="0" />
      <path
         d="m 221.64398,962.52547 0,9.19493 -1.41058,0 0,-6.61756 q -0.36571,0.67917 -0.81849,1.5499 -0.45278,0.87073 -0.90556,1.77629 -0.43536,0.90556 -0.8359,1.7763 -0.38312,0.85331 -0.64434,1.51507 l -1.1842,0 0,-9.19493 1.39317,0 0,6.02547 q 0.31347,-0.714 0.73142,-1.53249 0.41795,-0.8359 0.85331,-1.63698 0.43537,-0.81848 0.85332,-1.5499 0.43537,-0.74883 0.80107,-1.3061 l 1.16678,0 z"
         style="font-style:normal;font-variant:normal;font-weight:normal;font-stretch:normal;font-size:17.41462898px;line-height:125%;font-family:'Ubuntu Condensed';-inkscape-font-specification:'Ubuntu Condensed, Normal';text-align:start;letter-spacing:1.22298837px;writing-mode:lr-tb;text-anchor:start;fill:#666666;fill-opacity:1"
         id="path4199"
         inkscape:connector-curvature="0" />
      <path
         d="m 228.93216,970.50137 q -0.17414,-0.66175 -0.41795,-1.48024 -0.22639,-0.81849 -0.47019,-1.63697 -0.24381,-0.81849 -0.48761,-1.58474 -0.24381,-0.76624 -0.45278,-1.32351 -0.0523,0.78366 -0.0871,1.75888 -0.0348,0.9578 -0.0696,1.95044 -0.0174,0.99263 -0.0348,1.93302 0,0.92298 -0.0174,1.60215 l -1.41058,0 q 0.0174,-1.06229 0.0697,-2.22907 0.0522,-1.16678 0.10448,-2.35098 0.0697,-1.18419 0.13932,-2.35097 0.0871,-1.16678 0.17415,-2.21166 l 1.63697,0 q 0.52244,1.35834 0.99264,2.83858 0.48761,1.48025 0.92297,3.04756 0.43537,-1.56731 0.90556,-3.04756 0.48761,-1.48024 1.01005,-2.83858 l 1.63698,0 q 0.0871,1.04488 0.15673,2.21166 0.0871,1.16678 0.13931,2.35097 0.0697,1.1842 0.10449,2.35098 0.0522,1.16678 0.0871,2.22907 l -1.41058,0 q -0.0174,-0.67917 -0.0348,-1.60215 0,-0.94039 -0.0348,-1.93302 -0.0174,-0.99264 -0.0522,-1.95044 -0.0348,-0.97522 -0.0871,-1.75888 -0.20897,0.55727 -0.45278,1.32351 -0.2438,0.76625 -0.48761,1.58474 -0.2438,0.81848 -0.48761,1.63697 -0.22639,0.81849 -0.40053,1.48024 l -1.1842,0 z"
         style="font-style:normal;font-variant:normal;font-weight:normal;font-stretch:normal;font-size:17.41462898px;line-height:125%;font-family:'Ubuntu Condensed';-inkscape-font-specification:'Ubuntu Condensed, Normal';text-align:start;letter-spacing:1.22298837px;writing-mode:lr-tb;text-anchor:start;fill:#666666;fill-opacity:1"
         id="path4201"
         inkscape:connector-curvature="0" />
      <path
         d="m 240.1925,971.94679 q -0.94039,0 -1.56731,-0.36571 -0.62693,-0.36571 -1.02747,-0.99263 -0.38312,-0.64434 -0.55727,-1.51508 -0.15673,-0.87073 -0.15673,-1.89819 0,-2.2639 0.81849,-3.53517 0.8359,-1.28868 2.50771,-1.28868 0.50502,0 0.90556,0.1219 0.40053,0.1219 0.74883,0.31346 l -0.38312,1.23644 q -0.53986,-0.34829 -1.20161,-0.34829 -0.94039,0 -1.39317,0.85332 -0.43537,0.85331 -0.43537,2.64702 0,0.74883 0.0871,1.39317 0.0871,0.62693 0.29605,1.07971 0.22639,0.45278 0.57468,0.714 0.36571,0.26122 0.92298,0.26122 0.38312,0 0.67917,-0.0871 0.31346,-0.10448 0.5921,-0.26122 l 0.33088,1.16678 q -0.27864,0.19156 -0.74883,0.3483 -0.45278,0.15673 -0.99264,0.15673 z"
         style="font-style:normal;font-variant:normal;font-weight:normal;font-stretch:normal;font-size:17.41462898px;line-height:125%;font-family:'Ubuntu Condensed';-inkscape-font-specification:'Ubuntu Condensed, Normal';text-align:start;letter-spacing:1.22298837px;writing-mode:lr-tb;text-anchor:start;fill:#666666;fill-opacity:1"
         id="path4203"
         inkscape:connector-curvature="0" />
      <path
         d="m 244.01109,962.57772 6.06029,0 0,1.28868 -2.28131,0 0,7.854 -1.49766,0 0,-7.854 -2.28132,0 0,-1.28868 z"
         style="font-style:normal;font-variant:normal;font-weight:normal;font-stretch:normal;font-size:17.41462898px;line-height:125%;font-family:'Ubuntu Condensed';-inkscape-font-specification:'Ubuntu Condensed, Normal';text-align:start;letter-spacing:1.22298837px;writing-mode:lr-tb;text-anchor:start;fill:#666666;fill-opacity:1"
         id="path4205"
         inkscape:connector-curvature="0" />
      <path
         d="m 254.41078,967.59313 0,2.9779 q 0.57468,0.10449 1.14936,0.10449 0.73142,0 1.23644,-0.33088 0.50503,-0.34829 0.50503,-1.20161 0,-0.88814 -0.48761,-1.21902 -0.4702,-0.33088 -1.39317,-0.33088 l -1.01005,0 z m 1.13195,4.284 q -0.80107,0 -1.51507,-0.1219 -0.714,-0.10449 -1.11454,-0.24381 l 0,-8.79439 q 0.45278,-0.13931 1.13195,-0.2438 0.69659,-0.1219 1.49766,-0.1219 0.57468,0 1.11454,0.13931 0.55726,0.13932 0.97521,0.43537 0.41796,0.29605 0.66176,0.80107 0.26122,0.48761 0.26122,1.1842 0,0.73141 -0.33088,1.23644 -0.33088,0.48761 -0.88814,0.80107 0.64434,0.2438 1.0797,0.81849 0.43537,0.57468 0.43537,1.35834 0,0.80107 -0.26122,1.34092 -0.24381,0.52244 -0.69659,0.83591 -0.43536,0.31346 -1.04487,0.43536 -0.60952,0.13932 -1.3061,0.13932 z m -0.13932,-8.28936 q -0.45278,0 -0.99263,0.10448 l 0,2.78634 0.99263,0 q 0.78366,0 1.20161,-0.29604 0.41795,-0.29605 0.41795,-1.11454 0,-0.4702 -0.13931,-0.74883 -0.13932,-0.29605 -0.38313,-0.45278 -0.22639,-0.17415 -0.52244,-0.22639 -0.27863,-0.0522 -0.57468,-0.0522 z"
         style="font-style:normal;font-variant:normal;font-weight:normal;font-stretch:normal;font-size:17.41462898px;line-height:125%;font-family:'Ubuntu Condensed';-inkscape-font-specification:'Ubuntu Condensed, Normal';text-align:start;letter-spacing:1.22298837px;writing-mode:lr-tb;text-anchor:start;fill:#666666;fill-opacity:1"
         id="path4207"
         inkscape:connector-curvature="0" />
      <path
         d="m 262.37051,962.76928 q 0.45278,-0.19156 0.9578,-0.29605 0.50503,-0.1219 1.09712,-0.1219 1.21903,0 1.98527,0.76624 0.76624,0.74883 0.76624,2.35098 l 0,6.06029 q -0.62692,0.17414 -1.28868,0.27863 -0.64434,0.10449 -1.27127,0.10449 -0.62692,0 -1.18419,-0.15673 -0.53985,-0.15673 -0.95781,-0.50503 -0.40053,-0.34829 -0.64434,-0.87073 -0.2438,-0.53985 -0.2438,-1.3061 0,-0.714 0.20897,-1.23643 0.22639,-0.53986 0.60952,-0.88815 0.38312,-0.36571 0.90556,-0.53985 0.52244,-0.19156 1.13195,-0.19156 0.57468,0 1.27127,0.13931 l 0,-0.8359 q 0,-1.01005 -0.40054,-1.41058 -0.38312,-0.40054 -1.11454,-0.40054 -0.40053,0 -0.76624,0.0871 -0.34829,0.0697 -0.74883,0.24381 l -0.31346,-1.27127 z m 0.714,6.28668 q 0,0.80107 0.41795,1.18419 0.41795,0.38313 1.18419,0.38313 0.4702,0 1.02747,-0.12191 l 0,-2.90824 q -0.52244,-0.13932 -1.02747,-0.13932 -0.33088,0 -0.62692,0.0871 -0.29605,0.0697 -0.52244,0.26122 -0.20898,0.17414 -0.33088,0.48761 -0.1219,0.29604 -0.1219,0.76624 z"
         style="font-style:normal;font-variant:normal;font-weight:normal;font-stretch:normal;font-size:17.41462898px;line-height:125%;font-family:'Ubuntu Condensed';-inkscape-font-specification:'Ubuntu Condensed, Normal';text-align:start;letter-spacing:1.22298837px;writing-mode:lr-tb;text-anchor:start;fill:#666666;fill-opacity:1"
         id="path4209"
         inkscape:connector-curvature="0" />
    </g>
  </g>
  <g
     inkscape:groupmode="layer"
     id="layer2"
     inkscape:label="Layer 2"
     style="display:inline"
     transform="translate(-67.173324,-21.483622)">
    <path
       style="font-style:normal;font-variant:normal;font-weight:normal;font-stretch:normal;font-size:29.13856125px;line-height:125%;font-family:Tsarevich;-inkscape-font-specification:'Tsarevich, Normal';text-align:start;letter-spacing:0px;word-spacing:0px;writing-mode:lr-tb;text-anchor:start;display:inline;fill:#bb0f40;fill-opacity:1;stroke:none;stroke-width:1px;stroke-linecap:butt;stroke-linejoin:miter;stroke-opacity:1"
       d="m 67.848655,125.34754 c 0.881365,0 10.724508,0 50.275485,0.0943 l 50.14455,-0.0964 c 0,1.77593 0.0199,3.39865 0.0199,5.12545 l -50.28032,-0.0867 -50.230572,-0.11989 c 0,-2.03283 0.07169,-3.52875 0.07169,-4.91653 z m 8.184933,36.47302 c 1.756262,-1.47778 2.735655,-1.52754 4.393707,-0.22354 0.695306,0.54692 1.375506,0.88309 1.511468,0.74706 0.136039,-0.1357 -0.404147,-0.72918 -1.200606,-1.318 -1.76964,-1.3084 -1.96001,-2.53536 -0.329865,-2.12602 0.965063,0.24219 1.159061,0.0761 1.41663,-1.21184 0.329519,-1.6475 1.51475,-3.20025 2.44267,-3.20025 1.181603,0 2.640633,2.47816 2.341,3.97598 -0.220678,1.10395 -0.158239,1.28154 0.292558,0.83049 0.761729,-0.76165 1.796158,-0.73012 1.796158,0.0553 0,0.73996 -2.780913,3.33336 -3.163897,2.9502 -0.144333,-0.14354 0.0094,-0.59045 0.341783,-0.99087 0.33237,-0.40053 0.473419,-0.85935 0.313281,-1.01957 -0.160225,-0.15919 -0.42453,0.057 -0.58778,0.48187 -0.178103,0.46453 -0.826689,0.7728 -1.625653,0.7728 -1.280683,0 -2.20946,1.23585 -1.957427,2.60454 0.164205,0.89129 -2.689176,2.21066 -4.050015,1.87286 -1.253726,-0.31104 -3.381208,-1.96978 -3.381208,-2.63597 0,-0.19073 0.651178,-0.89451 1.447205,-1.56442 z m 1.987918,-30.38042 2.964537,0 -0.02505,2.53768 -0.02505,2.53768 -1.287144,-0.665 c -1.606221,-0.82988 -4.59236,-3.42363 -4.59236,-3.98868 0,-0.232 1.33414,-0.42168 2.964719,-0.42168 z m 2.091645,35.18664 c 0.89769,-0.77098 2.469448,-1.43728 2.469448,-1.04704 0,0.98787 -1.590415,3.01913 -2.363899,3.01913 -1.149912,0 -1.204837,-1.02794 -0.105458,-1.97209 z m 2.268195,-33.89328 c 1.009364,-1.86058 3.164329,-1.81333 3.951289,0.0868 0.683048,1.64906 0.283307,3.87397 -0.886549,4.93241 -1.062665,0.96178 -1.983851,0.62233 -3.005919,-1.10818 -0.96342,-1.63076 -0.972491,-2.22691 -0.05874,-3.91087 z m 0,34.3369 c 1.027684,-1.89446 2.640468,-1.73138 3.64198,0.36873 1.053243,2.20877 1.006601,2.71484 -0.405535,4.39309 -1.376983,1.63645 -2.274415,1.51493 -3.287666,-0.44457 -0.857093,-1.65735 -0.845086,-2.66535 0.05183,-4.31725 z m 0.617573,-4.04458 c 0.588116,-0.92792 2.147529,-0.45821 2.313195,0.69679 0.169036,1.17961 -1.139374,1.84771 -2.083525,1.06395 -0.747139,-0.61999 -0.782216,-0.88878 -0.22967,-1.76074 z m 3.625483,-24.50557 c 1.341138,-1.17746 1.822762,-1.36817 2.35025,-0.93025 0.364932,0.30266 0.66353,0.75846 0.66353,1.01257 0,0.25428 0.617577,1.37716 1.372405,2.49588 l 1.372489,2.03342 -1.529519,1.7693 -1.529434,1.76929 -1.877781,-2.79386 c -1.032692,-1.53686 -2.019695,-3.03728 -2.19323,-3.33458 -0.177413,-0.3037 0.423407,-1.18938 1.37129,-2.02177 z m -0.953487,26.78621 c 0.73332,0 2.952366,1.48011 3.20458,2.13776 0.426343,1.11104 0.396113,1.15465 -0.796545,1.15465 -0.781172,0 -1.310561,-0.46495 -1.873895,-1.64611 -0.4317,-0.90556 -0.67208,-1.6463 -0.53414,-1.6463 z m 1.563375,-14.39328 c 1.882791,-2.54061 8.225698,-8.62043 11.340288,-10.87013 3.506102,-2.53261 8.963762,-5.48021 12.863482,-6.94711 l 3.22081,-1.21184 1.76904,1.59811 c 0.97284,0.87877 2.06339,1.70252 2.42341,1.83018 0.935,0.33176 0.78376,0.41339 -5.46016,2.94925 -3.1044,1.26064 -7.02018,3.01689 -8.70181,3.90241 -5.465842,2.87817 -11.618388,8.06125 -15.43926,13.00653 l -1.072513,1.38804 -1.134529,-1.38804 c -1.454373,-1.77966 -1.442107,-2.05346 0.191321,-4.2574 z m 0.541569,10.6162 c 1.585404,-1.12865 2.948651,-1.01524 4.684252,0.39008 1.419839,1.14972 0.907451,2.72329 -1.216411,3.73595 -1.487974,0.70965 -1.726973,0.70835 -3.252346,-0.0199 -2.15271,-1.02639 -2.23874,-2.66604 -0.215503,-4.10678 z m 2.802584,-30.08924 c 1.810927,0 3.292519,0.10813 3.292519,0.24177 0,0.51271 -3.142218,3.12346 -4.851061,4.03014 l -1.793651,0.95149 0.548563,-1.02482 c 0.405183,-0.75699 0.412966,-1.32266 0.02938,-2.16351 -0.858218,-1.88366 -0.651696,-2.03507 2.773752,-2.03507 z m 5.538417,19.00022 1.680502,-1.46067 3.717738,2.53146 c 5.62073,3.82734 11.73165,6.66586 17.05006,7.9195 1.259,0.29688 1.3097,0.37237 0.4704,0.70094 -0.51739,0.20271 -1.45386,0.92066 -2.08103,1.59551 -1.36237,1.46655 -1.49833,1.47554 -5.03079,0.33245 -6.01477,-1.94584 -12.270962,-5.30736 -15.5449,-8.35198 l -1.942482,-1.80643 z m 23.62369,-19.00022 c 1.81093,0 3.29251,0.0751 3.29251,0.16514 0,0.09 -0.22715,0.81659 -0.50476,1.61288 -0.3633,1.04236 -0.35872,1.72084 0.0173,2.42211 0.77409,1.44643 -0.082,1.20156 -2.65066,-0.75768 -2.52879,-1.92883 -3.44616,-2.77383 -3.44616,-3.17349 0,-0.14744 1.48158,-0.2687 3.2925,-0.2687 z m -1.84548,30.38042 c 1.72317,-1.44998 2.62199,-1.50931 4.1972,-0.27701 0.64677,0.50589 1.3876,0.9223 1.64638,0.92498 0.2586,0 -0.21766,-0.53689 -1.05833,-1.19939 -1.82001,-1.43442 -2.07809,-2.78756 -0.454,-2.38006 0.90226,0.22649 1.09116,0.069 1.17805,-0.97931 0.11126,-1.34425 1.77112,-3.4218 2.73385,-3.4218 1.174,0 2.63045,2.48342 2.33203,3.97598 -0.22086,1.10395 -0.15825,1.28154 0.29246,0.83049 0.76165,-0.76165 1.79625,-0.73012 1.79625,0.0553 0,0.70696 -2.77271,3.34156 -3.13505,2.97905 -0.12861,-0.12774 0.009,-0.72796 0.30058,-1.33223 0.47877,-0.98408 0.46505,-1.01275 -0.13129,-0.27555 -0.36623,0.45279 -1.14826,0.82316 -1.73802,0.82316 -0.58969,0 -1.37172,-0.37037 -1.73795,-0.82316 -0.59521,-0.7359 -0.6085,-0.70558 -0.12577,0.28565 0.39042,0.80199 0.39768,1.25122 0.026,1.62298 -0.2827,0.28252 -0.51401,0.86901 -0.51401,1.30287 0,1.03174 -0.93147,1.77266 -2.66379,2.11911 -1.08486,0.21698 -1.73371,0 -2.89492,-0.97983 -0.82324,-0.69264 -1.49679,-1.43347 -1.49679,-1.64612 0,-0.21274 0.65135,-0.93458 1.44721,-1.60449 z m 3.11224,5.71376 c 0.11894,-0.45633 0.82469,-1.14421 1.56831,-1.52875 1.79236,-0.92679 2.0012,-0.88412 1.37714,0.28192 -0.28874,0.53942 -0.41917,1.08677 -0.28987,1.21608 0.12939,0.12981 0.47144,-0.20617 0.76027,-0.74586 0.78738,-1.47129 2.16256,-1.19792 3.3097,0.65828 1.12838,1.82578 0.97239,3.10783 -0.58502,4.81019 -0.75958,0.83032 -1.13592,0.94148 -1.86552,0.55081 -1.00418,-0.53734 -2.26766,-3.11096 -1.9429,-3.95734 0.13517,-0.35215 -0.28254,-0.46245 -1.22635,-0.32399 -0.78722,0.116 -1.40677,0.13371 -1.37673,0.0389 0.0303,-0.0943 0.15194,-0.54442 0.27097,-1.00074 z m 2.76571,-34.80082 c 0.98631,-1.81791 3.0023,-1.78216 4.09804,0.0733 1.11216,1.88278 1.02008,2.61377 -0.55124,4.37226 -1.22626,1.37251 -1.43883,1.45326 -2.18951,0.83066 -0.67113,-0.55684 -2.15504,-3.30563 -2.07783,-3.84944 0.009,-0.0726 0.33452,-0.71466 0.72054,-1.42614 z m 1.37762,29.92082 c 1.0757,-0.41269 2.11678,0.16516 2.11678,1.17608 0,1.11233 -1.29994,1.68371 -2.17638,0.95616 -0.8526,-0.70766 -0.82228,-1.79373 0.0596,-2.13224 z m 2.38289,2.65214 c 0.73332,0 2.95229,1.48011 3.20459,2.13776 0.42634,1.11104 0.39611,1.15465 -0.79672,1.15465 -0.78117,0 -1.31048,-0.46495 -1.87382,-1.64611 -0.43178,-0.90556 -0.67207,-1.6463 -0.53405,-1.6463 z m 2.10529,-3.77708 c 0.9028,-0.64271 1.81759,-0.9217 2.47886,-0.75578 1.15458,0.28988 3.14585,1.96805 3.14585,2.65136 0,0.67494 -1.98538,2.36001 -3.11491,2.64349 -0.55937,0.13959 -1.67489,-0.0845 -2.47879,-0.50071 -1.95309,-1.00998 -1.96578,-2.66068 -0.0303,-4.03836 z m 2.6238,-30.08924 c 1.65054,0 3.00091,0.19753 3.00091,0.43877 0,0.48406 -3.45238,3.38874 -4.9388,4.15515 -0.88163,0.45475 -0.9446,0.32553 -1.00186,-2.05434 l -0.0613,-2.53958 3.00093,0 z m 0.30024,27.75152 c 3.15527,0 13.25296,-4.63796 18.62607,-8.55522 l 3.09029,-2.2529 1.54576,1.49841 c 0.85019,0.82385 1.54586,1.6691 1.54586,1.87804 0,0.2092 -1.65926,1.61029 -3.68716,3.11398 -4.21482,3.12511 -10.298,6.23814 -14.43922,7.38968 l -2.83629,0.78835 -1.56277,-1.45973 c -0.85952,-0.80286 -1.96373,-1.45991 -2.45372,-1.45991 -0.49009,0 -0.89105,-0.21153 -0.89105,-0.47031 0,-0.25869 0.478,-0.47039 1.06223,-0.47039 z m 2.72555,-25.29313 1.75996,-1.53954 2.28262,0.77296 c 6.9567,2.35492 16.11611,8.2619 21.91805,14.13492 5.87632,5.94837 5.82208,5.84886 4.58546,8.4033 l -1.01516,2.09691 -1.76499,-2.22741 c -5.26262,-6.64212 -15.21053,-13.64762 -25.90923,-18.24576 -1.68154,-0.7227 -3.18317,-1.4358 -3.337,-1.58489 -0.15374,-0.14942 0.51237,-0.96368 1.48029,-1.81049 z m 26.96482,-2.45839 3.00091,0 -0.0613,2.53958 c -0.057,2.37987 -0.12032,2.50909 -1.00185,2.05434 -1.48643,-0.76641 -4.93881,-3.67109 -4.93881,-4.15515 0,-0.24124 1.35047,-0.43877 3.00081,-0.43877 z m -1.30191,9.18074 c 0.87652,-1.28871 1.59352,-2.61154 1.59352,-2.93966 0,-0.98934 0.86391,-0.68073 2.60747,0.93189 l 1.65286,1.52874 -2.17983,3.2342 -2.17974,3.2343 -1.00869,-1.12305 c -2.1921,-2.4405 -2.18484,-2.36778 -0.48559,-4.86642 z m -0.20143,20.93648 c 1.9569,-1.19325 2.49398,-1.19093 4.19183,0.0191 1.97116,1.40349 1.84454,3.04754 -0.31396,4.07687 -1.60709,0.7664 -1.75513,0.76088 -3.41006,-0.12584 -2.35527,-1.26091 -2.52655,-2.71476 -0.46781,-3.96987 z m 3.06692,-3.01119 c 0.16412,-0.16314 0.81789,0.0415 1.4524,0.45753 0.63459,0.41556 1.00686,0.51817 0.82729,0.22768 -0.44111,-0.71379 0.5249,-3.51604 1.52192,-4.41545 0.97958,-0.88361 2.05027,-0.26837 3.11958,1.79253 0.60619,1.16846 0.60326,1.48953 -0.025,2.70386 -0.39197,0.75785 -0.59115,1.49929 -0.44276,1.64769 0.14839,0.14744 0.26992,0.0372 0.26992,-0.24531 0,-0.73556 1.35668,-1.99334 2.15027,-1.99334 1.07243,0 0.78679,0.78565 -0.83763,2.30378 -0.8837,0.82591 -1.71255,1.25198 -1.99906,1.02776 -0.61999,-0.48543 -3.04098,-0.93535 -2.99762,-0.55738 0.10183,0.88983 -0.20566,0.87274 -1.29804,-0.0733 -1.42587,-1.23403 -2.16428,-2.45348 -1.74165,-2.87636 z m -0.0173,8.7494 c 0.13223,-0.32882 0.8564,-0.91626 1.60907,-1.30563 1.26209,-0.65265 1.37144,-0.64263 1.40566,0.12792 0.0216,0.49242 0.13447,0.5939 0.2744,0.24703 0.46488,-1.15181 2.45131,-0.65602 3.20415,0.79974 1.04565,2.0222 0.88646,3.6603 -0.48956,5.03632 l -1.20718,1.20709 -1.10473,-1.03788 c -1.39554,-1.31107 -1.83606,-3.01792 -1.12744,-4.36856 0.53361,-1.01697 0.52213,-1.02389 -0.37842,-0.22544 -0.51081,0.45251 -1.2824,0.82298 -1.71478,0.82298 -0.8038,0 -0.89458,-0.25109 -0.47117,-1.30331 z m 2.86253,-34.3267 c 1.68819,-3.41273 5.67882,-0.73391 4.19504,2.81591 -0.35284,0.84421 -1.00403,1.83545 -1.44687,2.20264 -0.71059,0.58949 -0.93509,0.53396 -1.9061,-0.47014 -1.51104,-1.56287 -1.73113,-2.75129 -0.84207,-4.54841 z m 0.89895,29.82902 c 0.5528,-0.5529 1.92918,-0.33522 2.1908,0.34618 0.37565,0.97897 -0.81641,2.36943 -1.73086,2.01832 -0.77038,-0.29558 -1.0568,-1.76784 -0.45994,-2.3645 z m 50.48574,-37.47255 48.91807,0 0,2.58709 -0.009,2.5166 -48.91218,0.0708 -48.91807,0 0,-2.58709 0,-2.58683 z m -44.95811,24.82705 c 6.09726,-7.14594 15.67222,-13.76351 24.32231,-16.80978 l 2.4661,-0.86831 1.78569,1.48193 c 1.87214,1.5537 2.21628,2.18751 1.18785,2.18751 -1.07979,0 -12.65383,5.95769 -16.55351,8.52102 -2.06967,1.3604 -6.06775,4.76788 -8.8847,7.57236 -2.81696,2.80477 -5.16001,5.04039 -5.20658,4.96845 -0.0458,-0.0708 -0.53103,-0.91004 -1.07623,-1.86293 l -0.9914,-1.7325 z m -2.19608,15.47547 c 2.18475,0.77477 3.32376,2.97101 1.54078,2.97101 -0.55258,0 -1.21921,-0.56168 -1.64634,-1.3876 -0.91245,-1.76471 -0.90072,-1.94022 0.1056,-1.58341 z m 1.26219,-27.31171 c 0.8881,-0.67727 1.73119,-1.23169 1.87349,-1.23169 0.14234,0 0.79329,1.00538 1.44668,2.23441 0.65343,1.22868 1.44556,2.59798 1.76029,3.04289 0.4838,0.68365 0.3225,1.06681 -1.04176,2.47429 l -1.61411,1.66539 -2.01977,-3.13912 c -1.11085,-1.72662 -2.01977,-3.29113 -2.01977,-3.47684 0,-0.18483 0.72668,-0.89181 1.61495,-1.56933 z m -0.0535,23.34496 c 2.03931,-1.38847 2.81718,-1.33595 4.66388,0.31457 l 1.53607,1.37275 -1.11737,1.18964 c -1.48922,1.58584 -3.38604,1.95837 -5.19823,1.02146 -1.95536,-1.01136 -1.91062,-2.51885 0.11565,-3.89842 z m 2.64053,-30.22097 c 1.82834,0 3.3243,0.19459 3.3243,0.43092 0,0.43887 -2.50905,2.53353 -4.79023,3.9994 l -1.26236,0.81123 0.0743,-1.56261 c 0.0405,-0.85934 -0.0924,-2.03852 -0.29799,-2.62068 -0.36407,-1.03296 -0.29307,-1.05826 2.95131,-1.05826 z m 6.6846,18.49346 1.48346,-1.48338 3.57528,2.49345 c 5.43943,3.7934 15.13359,8.24799 17.94951,8.24799 0.50197,0 0.91267,0.2117 0.91267,0.47039 0,0.25878 -0.3102,0.47031 -0.6892,0.47031 -0.37901,0 -1.43149,0.65188 -2.33872,1.44832 l -1.64949,1.44834 -2.71772,-0.781 c -4.05656,-1.1657 -10.76061,-4.59875 -14.44813,-7.3985 -1.79505,-1.36299 -3.3307,-2.69272 -3.4124,-2.95521 -0.0818,-0.26249 0.51888,-1.1449 1.33475,-1.96071 z m 23.36854,-18.49346 c 1.85596,0 3.37451,0.20168 3.37451,0.44828 0,0.24651 -0.24271,0.98096 -0.53947,1.63231 -0.41796,0.91729 -0.40285,1.3489 0.0673,1.91483 1.96834,2.37158 -2.69081,-0.14147 -5.13634,-2.7696 l -1.14027,-1.22582 3.3746,0 z m -1.95708,30.5967 c 1.95815,-1.54024 3.19041,-1.65417 4.82402,-0.44648 2.01381,1.48885 1.93861,3.02717 -0.19795,4.04595 -1.52913,0.72918 -1.76143,0.73013 -3.26484,0.0199 -0.89022,-0.42462 -1.84222,-1.18981 -2.11547,-1.70046 -0.41071,-0.76726 -0.27994,-1.09893 0.75424,-1.91233 z m 4.37166,-3.31548 c 0.5045,0 1.15549,0.37037 1.44659,0.82322 0.47288,0.73523 0.49368,0.72279 0.19582,-0.11808 -0.57403,-1.6189 -0.30099,-2.67337 1.06139,-4.09898 l 1.31774,-1.3788 1.29349,1.54533 c 0.7114,0.84985 1.29347,2.0336 1.29347,2.63029 0,0.92264 0.17616,1.04072 1.17589,0.78988 1.71975,-0.43152 1.50762,0.71821 -0.41555,2.25265 -1.85133,1.47718 -2.43574,1.26591 -1.38559,-0.50053 l 0.73689,-1.23984 -0.93169,1.12581 c -0.68227,0.82411 -1.25757,1.0631 -2.14926,0.89269 -0.66958,-0.12775 -1.20286,-0.10615 -1.18501,0.0509 0.12347,1.07613 -0.28144,0.9768 -1.72521,-0.42237 -1.87339,-1.81578 -2.03951,-2.3519 -0.7289,-2.3519 z m -0.0945,7.90542 c 0.8977,-0.77098 2.46937,-1.43728 2.46937,-1.04704 0,0.98787 -1.5905,3.01913 -2.36393,3.01913 -1.14983,0 -1.20485,-1.02794 -0.10538,-1.97209 z m 2.28294,-33.92151 c 0.9183,-1.69389 2.89395,-1.6033 3.88931,0.17887 0.79895,1.43028 0.48064,3.10155 -0.86576,4.54676 -1.15665,1.24155 -2.14938,0.96826 -3.08969,-0.8501 -0.85053,-1.64449 -0.84098,-2.20195 0.0661,-3.8751 z m 0.0662,34.60015 c 0.98915,-1.98757 2.42449,-2.01866 3.52993,-0.0761 1.11694,1.96262 1.03724,2.925 -0.38237,4.61198 -1.02254,1.2152 -1.33886,1.34942 -2.08321,0.88456 -0.91489,-0.5712 -1.9071,-2.34999 -1.85521,-3.32551 0.0177,-0.31121 0.37237,-1.25371 0.79087,-2.0944 z m 0.90368,-4.50753 c 0.64458,-0.64471 1.93699,-0.28133 2.17005,0.60971 0.28595,1.09351 -0.76305,2.11824 -1.77206,1.73121 -0.72053,-0.27675 -0.9736,-1.76533 -0.39799,-2.34092 z m 3.33173,2.82997 c 2.18476,0.77477 3.32376,2.97101 1.5408,2.97101 -0.5526,0 -1.21925,-0.56168 -1.64625,-1.3876 -0.91258,-1.76471 -0.90082,-1.94022 0.1055,-1.58341 z m 1.23141,-4.04596 c 2.07892,-1.28473 2.60894,-1.23982 4.54839,0.38645 l 1.62849,1.36566 -1.1174,1.19689 c -1.48606,1.59205 -3.38278,1.96736 -5.1982,1.02863 -2.0121,-1.04073 -1.95477,-2.68391 0.13881,-3.97763 z m 2.363,-30.14176 c 1.70956,0 3.10836,0.18872 3.10836,0.42168 0,0.59417 -3.01995,3.17607 -4.77856,4.0855 -1.4046,0.72625 -1.45658,0.72116 -1.11358,-0.10802 0.44914,-1.08701 0.45187,-1.48908 0.0212,-3.1049 l -0.3452,-1.29346 z m 3.63482,27.30418 c 4.84334,-1.45989 10.33413,-4.15141 14.76044,-7.23481 l 3.76285,-2.62155 1.52872,1.48132 c 0.84077,0.81442 1.52873,1.63118 1.52873,1.81481 0,0.58131 -6.22347,4.95635 -9.55018,6.71364 -1.76019,0.92965 -4.99962,2.25143 -7.19876,2.93691 l -3.9985,1.24689 -1.26788,-1.1765 c -0.69729,-0.64694 -1.66585,-1.38735 -2.15239,-1.64526 -0.73388,-0.38885 -0.29289,-0.64729 2.58697,-1.51545 z m -0.52423,-25.05784 c 2.2509,-1.71402 2.33913,-1.73794 4.09844,-1.11725 8.77948,3.09763 19.32081,10.82919 25.61452,18.78731 l 1.80146,2.27786 -0.96372,1.35332 c -1.41887,1.99258 -1.79212,2.06885 -2.92493,0.59806 -6.28323,-8.15841 -15.09083,-14.09657 -27.74561,-18.70595 -1.22879,-0.44759 -2.22214,-0.95504 -2.20744,-1.12771 0.0137,-0.173 1.06202,-1.10213 2.32728,-2.06564 z m 26.0247,-2.24634 c 1.63847,0 3.09713,0.1179 3.24143,0.2624 0.14432,0.14356 0.0252,0.88966 -0.26369,1.65641 -0.39948,1.05809 -0.38616,1.61779 0.0546,2.32442 0.31968,0.51185 0.3911,0.93086 0.15866,0.93086 -0.67936,0 -6.17054,-4.18502 -6.17054,-4.70283 0,-0.26526 1.30251,-0.47126 2.97898,-0.47126 z m -1.41467,30.36919 c 1.93294,-1.47433 2.77128,-1.5069 4.56957,-0.17699 1.86434,1.37836 1.84303,2.94693 -0.0534,3.92745 -2.22321,1.14955 -4.43779,0.38894 -5.78263,-1.98618 -0.18322,-0.32356 0.34803,-1.06344 1.26639,-1.76385 z m 0.72102,-20.07526 c 0.48089,-0.61697 1.24855,-1.86257 1.7061,-2.76813 0.45758,-0.90538 0.90503,-1.7287 0.99442,-1.82932 0.30747,-0.34662 3.48075,2.34809 3.48075,2.95564 0,0.33462 -0.88067,1.91978 -1.95709,3.52279 l -1.95717,2.91463 -1.57063,-1.52226 c -1.83306,-1.77665 -1.83947,-1.80654 -0.69638,-3.27335 z m 3.33577,16.98729 c 0.50447,0 1.13585,0.37037 1.403,0.82322 0.38741,0.65637 0.4372,0.53742 0.24638,-0.58812 -0.26298,-1.5505 0.51542,-3.39227 1.76289,-4.17138 0.63011,-0.39342 1.05879,-0.25954 1.99909,0.6238 1.36615,1.28345 1.51391,2.74647 0.4794,4.7468 -0.7729,1.49481 -2.33797,1.85083 -3.51647,0.79983 -0.55615,-0.49578 -0.56729,-0.46555 -0.0713,0.19262 1.05646,1.40333 -0.17595,1.31082 -1.71669,-0.12965 -1.72342,-1.61079 -1.89891,-2.29842 -0.58642,-2.29842 z m 0.58943,7.53616 c 0.8289,-0.50382 1.58534,-0.83783 1.681,-0.74204 0.47845,0.47834 -1.43022,3.08339 -2.25921,3.08339 -1.42928,0 -1.10374,-1.3184 0.57821,-2.34135 z m 1.11403,-33.52402 c 1.06729,-1.96717 3.07981,-1.79632 4.10244,0.34827 0.88278,1.85109 0.58558,3.2127 -1.01613,4.65567 -1.14393,1.03028 -1.99384,0.58441 -3.1512,-1.65363 -0.82007,-1.58593 -0.81747,-1.72378 0.0652,-3.35031 z m 0.51016,34.57192 c 1.026,-2.08137 2.49561,-2.0456 3.64481,0.089 1.01078,1.87682 0.76494,3.54626 -0.74479,5.05592 l -1.00457,1.00462 -1.33519,-1.49453 c -1.52421,-1.70572 -1.62029,-2.50417 -0.56026,-4.6543 z m 0.47718,-4.2333 c 0.13057,-0.32329 0.74878,-0.58786 1.37405,-0.58786 0.90262,0 1.13668,0.24512 1.13668,1.19067 0,1.38562 -1.11462,1.99266 -2.12269,1.15612 -0.7333,-0.60851 -0.77532,-0.79887 -0.38804,-1.75893 z m 3.56321,-2.82219 c 0.97824,-1.63308 2.80667,-2.17353 2.38714,-0.70535 -0.28207,0.98693 -2.81907,3.10888 -3.10304,2.59547 -0.10988,-0.19884 0.21225,-1.04928 0.7159,-1.89012 z m -0.77805,5.05653 c 0.7266,0 2.9455,1.48417 3.19628,2.13776 0.41984,1.09393 0.38803,1.15465 -0.60207,1.15465 -0.52339,0 -1.29706,-0.68261 -1.86562,-1.64611 -0.53422,-0.90556 -0.86207,-1.6463 -0.72859,-1.6463 z m 2.05831,-3.67445 c 1.73193,-1.28051 2.56313,-1.29148 4.29738,-0.057 1.55255,1.10568 1.74463,2.30336 0.54293,3.38623 -1.3418,1.20915 -3.15806,1.43986 -4.77058,0.60609 -1.91286,-0.98934 -1.94059,-2.55271 -0.0695,-3.93591 z m -0.59154,-29.89509 c 0.44631,-0.44622 6.25507,-0.35734 6.25507,0.0964 0,0.5432 -2.57342,2.7848 -4.50635,3.92528 l -1.60287,0.94563 0.27966,-1.39831 c 0.15393,-0.76916 0.0546,-1.81973 -0.22136,-2.33487 -0.27569,-0.51489 -0.36746,-1.06993 -0.20415,-1.23343 z"
       id="path4173-2-1-6-7-7-0-7-5"
       inkscape:connector-curvature="0"
       sodipodi:nodetypes="cscccccccssccsccscsccsccccscssscsccscccccccccccccscccccccccsscccsccsscssscccscsscccssscscssscsssccsscscccccssccccccsccscccscccsscsccccccssccsccccccsccccscccccsccccccscccscccccsccsccscccsccsscsscsccscscsscccscssccsscccsccscccsccsscccsccsscsssssscssscscsscsccsccccscssccccscssscsscsscsssscsscscssscscssscssscsssssssscssscsssscsccssscscsssssssccsscscccccsccsccccsccssscssssssscssscsssssssccssssssscscsssssscssscsscsccsscsssscsscssscsssccsccscccccscccccscccccsssssscccscccsccsscccccsccccccccccscccccc"
       inkscape:export-xdpi="500"
       inkscape:export-ydpi="500" />
  </g>
</svg>
