<?xml version="1.0" encoding="UTF-8" standalone="no"?>
<!-- Created with Inkscape (http://www.inkscape.org/) -->

<svg
   xmlns:dc="http://purl.org/dc/elements/1.1/"
   xmlns:cc="http://creativecommons.org/ns#"
   xmlns:rdf="http://www.w3.org/1999/02/22-rdf-syntax-ns#"
   xmlns:svg="http://www.w3.org/2000/svg"
   xmlns="http://www.w3.org/2000/svg"
   xmlns:sodipodi="http://sodipodi.sourceforge.net/DTD/sodipodi-0.dtd"
   xmlns:inkscape="http://www.inkscape.org/namespaces/inkscape"
   width="31.314634mm"
   height="6.1758857mm"
   viewBox="0 0 110.95737 21.883059"
   id="svg4169"
   version="1.1"
   inkscape:version="0.91 r13725"
   sodipodi:docname="site-logo.svg">
  <defs
     id="defs4171" />
  <sodipodi:namedview
     id="base"
     pagecolor="#ffffff"
     bordercolor="#666666"
     borderopacity="1.0"
     inkscape:pageopacity="0.0"
     inkscape:pageshadow="2"
     inkscape:zoom="2.7699046"
     inkscape:cx="-102.26315"
     inkscape:cy="24.381846"
     inkscape:document-units="px"
     inkscape:current-layer="g4467"
     showgrid="false"
     fit-margin-top="0"
     fit-margin-left="0"
     fit-margin-right="0"
     fit-margin-bottom="0"
     inkscape:window-width="1680"
     inkscape:window-height="1026"
     inkscape:window-x="0"
     inkscape:window-y="24"
     inkscape:window-maximized="1" />
  <metadata
     id="metadata4174">
    <rdf:RDF>
      <cc:Work
         rdf:about="">
        <dc:format>image/svg+xml</dc:format>
        <dc:type
           rdf:resource="http://purl.org/dc/dcmitype/StillImage" />
        <dc:title />
      </cc:Work>
    </rdf:RDF>
  </metadata>
  <g
     inkscape:label="Layer 1"
     inkscape:groupmode="layer"
     id="layer1"
     transform="translate(-230.2356,-345.35227)">
    <g
       id="g4467"
       transform="translate(208.73745,322.27369)">
      <g
         style="font-style:normal;font-variant:normal;font-weight:normal;font-stretch:normal;font-size:29.13856125px;line-height:125%;font-family:Tsarevich;-inkscape-font-specification:'Tsarevich, Normal';text-align:start;letter-spacing:0px;word-spacing:0px;writing-mode:lr-tb;text-anchor:start;display:inline;fill:#da124a;fill-opacity:1;stroke:none;stroke-width:1px;stroke-linecap:butt;stroke-linejoin:miter;stroke-opacity:1"
         id="text3336-0-4-8-0-4"
         transform="translate(0,-6)">
        <path
           d="m 21.498152,29.078585 12.76269,0 0,5.128387 -2.535055,0 0,-4.166814 -2.593332,0 0,19.260589 -2.535055,0 0,-19.260589 -2.564193,0 0,4.166814 -2.535055,0 0,-5.128387 0,0 z"
           style="font-style:normal;font-variant:normal;font-weight:normal;font-stretch:normal;font-size:29.13856125px;line-height:125%;font-family:Tsarevich;-inkscape-font-specification:'Tsarevich, Normal';text-align:start;writing-mode:lr-tb;text-anchor:start;fill:#da124a;fill-opacity:1"
           id="path4196"
           inkscape:connector-curvature="0" />
        <path
           d="m 49.71293,29.078585 0,20.222162 -2.535055,0 0,-7.69258 q -0.495355,0.495355 -1.165542,0.815879 -0.670187,0.291386 -1.42779,0.291386 l 0,6.585315 -2.535055,0 0,-12.675274 2.535055,0 0,5.128387 q 0.524494,0 0.961573,-0.174832 0.466217,-0.20397 0.815879,-0.524494 0.349663,-0.349663 0.553633,-0.786741 0.233109,-0.437078 0.262247,-0.961573 l 0,-10.227635 2.535055,0 z m -5.128387,5.128387 -2.535055,0 q -0.524494,0 -0.990711,0.20397 -0.437078,0.174831 -0.786741,0.524494 -0.349663,0.320524 -0.582771,0.757603 -0.20397,0.437078 -0.233109,0.961572 l 0,12.646136 -2.535054,0 0,-20.222162 7.663441,0 0,5.128387 z m -2.535055,-4.166814 -2.593332,0 0,4.312507 q 0.495356,-0.495356 1.165543,-0.786741 0.670187,-0.320524 1.427789,-0.320524 l 0,-3.205242 z"
           style="font-style:normal;font-variant:normal;font-weight:normal;font-stretch:normal;font-size:29.13856125px;line-height:125%;font-family:Tsarevich;-inkscape-font-specification:'Tsarevich, Normal';text-align:start;writing-mode:lr-tb;text-anchor:start;fill:#da124a;fill-opacity:1"
           id="path4198"
           inkscape:connector-curvature="0" />
        <path
           d="m 68.319724,29.078585 2.535055,0 0,20.222162 -2.535055,0 0,-16.696396 q -0.524494,0 -0.990711,0.20397 -0.437079,0.174832 -0.786742,0.524494 -0.349662,0.320525 -0.582771,0.757603 -0.20397,0.437078 -0.233108,0.961572 l 0,14.248757 -2.535055,0 0,-14.248757 q 0,-0.524494 -0.233109,-0.961572 -0.233108,-0.466217 -0.582771,-0.786741 -0.349663,-0.349663 -0.81588,-0.524494 -0.466216,-0.174832 -0.932433,-0.174832 l 0,16.696396 -2.535055,0 0,-20.222162 2.535055,0 0,2.564194 q 0.874156,0 1.923145,0.378801 1.078126,0.378801 1.923145,1.048988 0.815879,-0.670187 1.894006,-1.048988 1.078127,-0.378801 1.952284,-0.378801 l 0,-2.564194 z"
           style="font-style:normal;font-variant:normal;font-weight:normal;font-stretch:normal;font-size:29.13856125px;line-height:125%;font-family:Tsarevich;-inkscape-font-specification:'Tsarevich, Normal';text-align:start;writing-mode:lr-tb;text-anchor:start;fill:#da124a;fill-opacity:1"
           id="path4200"
           inkscape:connector-curvature="0" />
        <path
           d="m 81.178477,29.078585 0,5.128387 -2.535055,0 0,-4.166814 -2.593332,0 0,3.991983 q 0,1.194681 0.670187,1.894006 0.699326,0.699326 1.923145,0.699326 l 0,0.961572 q -1.223819,0 -1.923145,0.699326 -0.670187,0.699325 -0.670187,1.864868 l 0,8.187935 2.593332,0 0,-6.585314 2.535055,0 0,7.546887 -7.663441,0 0,-9.12037 q 0,-1.223819 0.728464,-1.952283 Q 75.001102,37.49963 75.991813,37.09169 75.001102,36.712888 74.2435,35.984424 73.515036,35.25596 73.515036,34.032141 l 0,-4.953556 7.663441,0 z"
           style="font-style:normal;font-variant:normal;font-weight:normal;font-stretch:normal;font-size:29.13856125px;line-height:125%;font-family:Tsarevich;-inkscape-font-specification:'Tsarevich, Normal';text-align:start;writing-mode:lr-tb;text-anchor:start;fill:#da124a;fill-opacity:1"
           id="path4202"
           inkscape:connector-curvature="0" />
        <path
           d="m 91.479415,48.339174 1.282097,0 0,0.961573 q 0,0.699325 -0.466217,1.165542 -0.466217,0.495356 -1.311236,0.495356 l -2.039699,0 0,-0.320524 q 1.282097,0 1.282097,-1.340374 l -5.157526,0 q 0,1.340374 1.282097,1.340374 l 0,0.320524 -2.039699,0 q -0.845018,0 -1.311235,-0.495356 -0.466217,-0.466217 -0.466217,-1.165542 l 0,-0.961573 1.282096,0 0,-11.713701 2.535055,0 q 1.048988,0 1.777452,-0.699326 0.757603,-0.728464 0.81588,-1.748313 l 0,-4.137676 -2.593332,0 0,4.166814 -2.535055,0 0,-5.128387 7.663442,0 0,19.260589 z m -2.535055,0 0,-11.859394 q -0.495355,0.495356 -1.165542,0.81588 -0.670187,0.291385 -1.42779,0.291385 l 0,10.752129 2.593332,0 z"
           style="font-style:normal;font-variant:normal;font-weight:normal;font-stretch:normal;font-size:29.13856125px;line-height:125%;font-family:Tsarevich;-inkscape-font-specification:'Tsarevich, Normal';text-align:start;writing-mode:lr-tb;text-anchor:start;fill:#da124a;fill-opacity:1"
           id="path4204"
           inkscape:connector-curvature="0" />
        <path
           d="m 101.66653,29.078585 0,5.128387 -3.904568,0 q -0.495355,0 -0.874156,0.349663 -0.349663,0.349663 -0.349663,0.845018 0,0.495356 0.349663,0.874157 0.378801,0.349663 0.874156,0.349663 l 3.904568,0 0,12.675274 -7.663442,0 0,-20.222162 7.663442,0 z m -3.904568,8.50846 q -0.670187,0 -1.223819,-0.378801 l 0,11.13093 2.593332,0 0,-10.752129 -1.369513,0 z m 1.369513,-7.546887 -2.593332,0 0,3.584043 Q 97.091775,33.2454 97.761962,33.2454 l 1.369513,0 0,-3.205242 z"
           style="font-style:normal;font-variant:normal;font-weight:normal;font-stretch:normal;font-size:29.13856125px;line-height:125%;font-family:Tsarevich;-inkscape-font-specification:'Tsarevich, Normal';text-align:start;writing-mode:lr-tb;text-anchor:start;fill:#da124a;fill-opacity:1"
           id="path4206"
           inkscape:connector-curvature="0" />
        <path
           d="m 111.96746,29.078585 0,5.128387 -2.53505,0 0,-4.166814 -2.59333,0 0,3.991983 q 0,1.194681 0.67018,1.894006 0.69933,0.699326 1.92315,0.699326 l 0,0.961572 q -1.22382,0 -1.92315,0.699326 -0.67018,0.699325 -0.67018,1.864868 l 0,8.187935 2.59333,0 0,-6.585314 2.53505,0 0,7.546887 -7.66344,0 0,-9.12037 q 0,-1.223819 0.72847,-1.952283 0.7576,-0.728464 1.74831,-1.136404 -0.99071,-0.378802 -1.74831,-1.107266 -0.72847,-0.728464 -0.72847,-1.952283 l 0,-4.953556 7.66344,0 z"
           style="font-style:normal;font-variant:normal;font-weight:normal;font-stretch:normal;font-size:29.13856125px;line-height:125%;font-family:Tsarevich;-inkscape-font-specification:'Tsarevich, Normal';text-align:start;writing-mode:lr-tb;text-anchor:start;fill:#da124a;fill-opacity:1"
           id="path4208"
           inkscape:connector-curvature="0" />
        <path
           d="m 122.2684,48.339174 1.2821,0 0,0.961573 q 0,0.699325 -0.46622,1.165542 -0.46621,0.495356 -1.31123,0.495356 l -2.0397,0 0,-0.320524 q 1.2821,0 1.2821,-1.340374 l -5.15753,0 q 0,1.340374 1.2821,1.340374 l 0,0.320524 -2.0397,0 q -0.84502,0 -1.31124,-0.495356 -0.46621,-0.466217 -0.46621,-1.165542 l 0,-0.961573 1.28209,0 0,-11.713701 2.53506,0 q 1.04899,0 1.77745,-0.699326 0.7576,-0.728464 0.81588,-1.748313 l 0,-4.137676 -2.59333,0 0,4.166814 -2.53506,0 0,-5.128387 7.66344,0 0,19.260589 z m -2.53505,0 0,-11.859394 q -0.49536,0.495356 -1.16554,0.81588 -0.67019,0.291385 -1.42779,0.291385 l 0,10.752129 2.59333,0 z"
           style="font-style:normal;font-variant:normal;font-weight:normal;font-stretch:normal;font-size:29.13856125px;line-height:125%;font-family:Tsarevich;-inkscape-font-specification:'Tsarevich, Normal';text-align:start;writing-mode:lr-tb;text-anchor:start;fill:#da124a;fill-opacity:1"
           id="path4210"
           inkscape:connector-curvature="0" />
        <path
           d="m 132.45552,29.078585 0,20.222162 -2.53506,0 0,-12.092503 q -0.58277,0.378801 -1.22382,0.378801 l -1.36951,0 0,11.713702 -2.53506,0 0,-12.675274 3.90457,0 q 0.49536,0 0.84502,-0.349663 0.3788,-0.378801 0.3788,-0.874157 0,-0.495355 -0.3788,-0.845018 -0.34966,-0.349663 -0.84502,-0.349663 l -3.90457,0 0,-5.128387 7.66345,0 z m -2.53506,0.961573 -2.59333,0 0,3.205242 1.36951,0 q 0.64105,0 1.22382,0.378801 l 0,-3.584043 z"
           style="font-style:normal;font-variant:normal;font-weight:normal;font-stretch:normal;font-size:29.13856125px;line-height:125%;font-family:Tsarevich;-inkscape-font-specification:'Tsarevich, Normal';text-align:start;writing-mode:lr-tb;text-anchor:start;fill:#da124a;fill-opacity:1"
           id="path4212"
           inkscape:connector-curvature="0" />
      </g>
    </g>
  </g>
</svg>
